<svg width="386" height="245" viewBox="0 0 386 245" fill="none" xmlns="http://www.w3.org/2000/svg">
<g clip-path="url(#clip0_54_2093)">
<path d="M15.3101 202.54L15.4501 243.84C15.441 244.136 15.3226 244.419 15.1176 244.633C14.9127 244.847 14.6357 244.978 14.3401 245H0.940078C0.650993 244.979 0.379332 244.854 0.175293 244.648C-0.0287455 244.442 -0.15137 244.169 -0.169922 243.88L0.250078 196.58L-0.169922 148.45C-0.15137 148.161 -0.0287455 147.888 0.175293 147.682C0.379332 147.476 0.650993 147.351 0.940078 147.33H21.5901C21.915 147.334 22.2321 147.43 22.5047 147.607C22.7772 147.784 22.9941 148.035 23.1301 148.33L51.7301 223.53L79.2201 148.47C79.3264 148.147 79.5311 147.865 79.8055 147.665C80.0798 147.464 80.4101 147.354 80.7501 147.35H100C100.289 147.371 100.561 147.496 100.765 147.702C100.969 147.908 101.092 148.181 101.11 148.47L100.69 196.6L101.25 243.9C101.232 244.189 101.109 244.462 100.905 244.668C100.701 244.874 100.429 244.999 100.14 245.02H85.0801C84.7865 244.99 84.514 244.854 84.3148 244.636C84.1156 244.418 84.0035 244.135 84.0001 243.84L84.1401 202.54L84.5601 179.1L84.7001 171.15L57.7301 243.84C57.6293 244.17 57.4272 244.459 57.1526 244.667C56.8779 244.875 56.5446 244.992 56.2001 245H44.8901C44.5668 244.994 44.2519 244.897 43.9813 244.72C43.7106 244.543 43.4954 244.294 43.3601 244L14.6201 168.92L14.9001 179.38L15.3101 202.54Z" fill="#231F20"/>
<path d="M112 165.71C111.711 165.689 111.439 165.564 111.235 165.358C111.031 165.152 110.908 164.879 110.89 164.59V150.22C110.908 149.931 111.031 149.658 111.235 149.452C111.439 149.246 111.711 149.121 112 149.1H126.79C127.081 149.119 127.355 149.243 127.561 149.449C127.767 149.655 127.891 149.929 127.91 150.22V164.59C127.891 164.881 127.767 165.155 127.561 165.361C127.355 165.567 127.081 165.691 126.79 165.71H112ZM112 245C111.711 244.979 111.439 244.854 111.235 244.648C111.031 244.442 110.908 244.169 110.89 243.88L111.17 208.58L110.89 174.26C110.899 173.964 111.017 173.681 111.222 173.467C111.427 173.253 111.704 173.122 112 173.1H126.93C127.221 173.119 127.495 173.243 127.701 173.449C127.907 173.655 128.031 173.929 128.05 174.22L127.63 208.54L128.05 243.84C128.031 244.131 127.907 244.405 127.701 244.611C127.495 244.817 127.221 244.941 126.93 244.96L112 245Z" fill="#231F20"/>
<path d="M174.39 209.52H156L156.28 243.84C156.262 244.129 156.139 244.402 155.935 244.608C155.731 244.814 155.459 244.939 155.17 244.96H139.93C139.639 244.941 139.365 244.817 139.159 244.611C138.953 244.405 138.829 244.131 138.81 243.84L139.23 195.57L138.81 148.41C138.829 148.119 138.953 147.845 139.159 147.639C139.365 147.433 139.639 147.309 139.93 147.29H174.39C196.85 147.29 210.25 157.62 210.25 177.99C210.25 198.36 196.44 209.52 174.39 209.52ZM155.83 196V196.41H175.51C185.97 196.41 193.65 191.25 193.65 178.27C193.65 166.14 186.95 160.42 174.95 160.42H156.11L155.83 196Z" fill="#231F20"/>
<path d="M282.1 245C281.811 244.979 281.539 244.854 281.335 244.648C281.131 244.442 281.009 244.169 280.99 243.88L281.41 199.51H234.11L234.52 243.88C234.502 244.169 234.379 244.442 234.175 244.648C233.971 244.854 233.699 244.979 233.41 245H218.2C217.909 244.981 217.635 244.857 217.429 244.651C217.223 244.445 217.099 244.171 217.08 243.88L217.64 196.44L217.08 148.44C217.099 148.149 217.223 147.875 217.429 147.669C217.635 147.463 217.909 147.339 218.2 147.32H233.41C233.699 147.341 233.971 147.466 234.175 147.672C234.379 147.878 234.502 148.151 234.52 148.44L234.25 186.11H281.25L281 148.41C281.019 148.121 281.141 147.848 281.345 147.642C281.549 147.436 281.821 147.311 282.11 147.29H297.46C297.751 147.309 298.025 147.433 298.231 147.639C298.437 147.845 298.561 148.119 298.58 148.41L298.02 196.41L298.58 243.85C298.561 244.141 298.437 244.415 298.231 244.621C298.025 244.827 297.751 244.951 297.46 244.97L282.1 245Z" fill="#231F20"/>
<path d="M354.08 225.42L341.94 207.15H324.36L324.64 243.84C324.621 244.131 324.497 244.405 324.291 244.611C324.085 244.817 323.811 244.941 323.52 244.96H308.45C308.159 244.941 307.885 244.817 307.679 244.611C307.473 244.405 307.349 244.131 307.33 243.84L307.75 195.57L307.33 148.41C307.349 148.119 307.473 147.845 307.679 147.639C307.885 147.433 308.159 147.309 308.45 147.29H345.45C368.75 147.29 382.56 157.34 382.56 177.15C382.56 192.08 374.19 201.71 360.09 205.47L384.91 244C384.981 244.097 385.023 244.213 385.031 244.334C385.038 244.455 385.01 244.575 384.951 244.68C384.892 244.785 384.804 244.872 384.698 244.928C384.591 244.985 384.47 245.01 384.35 245H366.63C366.288 244.996 365.953 244.902 365.66 244.726C365.366 244.55 365.125 244.3 364.96 244L354.08 225.42ZM346.4 160.42H324.5L324.22 193.9H346.82C357.7 193.9 365.93 189.16 365.93 177.44C365.93 166.13 358.82 160.41 346.4 160.41V160.42Z" fill="#231F20"/>
<path d="M385 -1.31953e-05V133.7H223.65V96.93C223.666 83.5566 220.907 70.3254 215.547 58.0732C210.187 45.821 202.343 34.8145 192.51 25.75C210.399 9.1632 233.904 -0.036628 258.3 -1.31953e-05H385Z" fill="#E5BB5B"/>
<path d="M223.65 96.93V133.7H161.36V96.93C161.343 83.5556 164.103 70.3234 169.465 58.0709C174.827 45.8184 182.674 34.8125 192.51 25.75C202.343 34.8145 210.187 45.821 215.547 58.0732C220.907 70.3254 223.666 83.5566 223.65 96.93Z" fill="#4F1C29"/>
<path d="M192.51 25.7501C182.674 34.8126 174.827 45.8185 169.465 58.071C164.103 70.3235 161.343 83.5557 161.36 96.9301V133.7H0V8.65728e-05H126.72C151.115 -0.0325557 174.619 9.16672 192.51 25.7501Z" fill="#971D20"/>
</g>
<defs>
<clipPath id="clip0_54_2093">
<rect width="385.02" height="244.96" fill="white"/>
</clipPath>
</defs>
</svg>
